<?xml version="1.0" standalone="no"?>
<!DOCTYPE svg PUBLIC "-//W3C//DTD SVG 20010904//EN"
 "http://www.w3.org/TR/2001/REC-SVG-20010904/DTD/svg10.dtd">
<svg version="1.0" xmlns="http://www.w3.org/2000/svg"
 width="500.000000pt" height="500.000000pt" viewBox="0 0 500.000000 500.000000"
 preserveAspectRatio="xMidYMid meet">
<metadata>
Created by potrace 1.16, written by Peter Selinger 2001-2019
</metadata>
<g transform="translate(0.000000,500.000000) scale(0.100000,-0.100000)"
fill="#000000" stroke="none">
<path d="M3051 2950 c-70 -15 -127 -48 -175 -101 -59 -65 -80 -130 -80 -236 1
-72 5 -91 33 -147 56 -115 150 -170 291 -170 87 0 188 24 195 48 8 26 13 126
6 126 -4 0 -21 -28 -37 -61 -16 -34 -38 -68 -49 -75 -36 -24 -102 -28 -149
-10 -53 20 -78 46 -108 111 -21 45 -23 65 -23 191 0 137 1 142 30 199 34 66
75 100 135 110 68 12 104 -8 152 -83 l43 -67 3 59 c2 32 -1 62 -5 66 -39 34
-185 56 -262 40z"/>
<path d="M3652 2946 c-112 -28 -198 -108 -228 -213 -22 -76 -15 -190 16 -261
29 -66 103 -134 173 -159 71 -24 194 -23 267 3 l55 20 2 75 2 74 -37 -73 c-32
-63 -41 -74 -79 -88 -86 -33 -178 4 -220 88 -48 96 -51 297 -7 407 20 51 71
96 125 112 68 21 114 -1 167 -81 l43 -65 -3 65 -3 64 -49 19 c-66 24 -159 30
-224 13z"/>
<path d="M1133 2924 l27 -15 0 -284 0 -284 -27 -15 c-26 -14 -19 -15 106 -16
133 0 143 2 99 24 -22 11 -23 17 -26 149 l-3 138 63 -3 c58 -3 64 -5 83 -35
11 -18 23 -32 28 -33 4 0 7 39 6 88 0 71 -2 84 -12 68 -40 -62 -46 -66 -108
-66 l-59 0 0 140 0 140 88 0 c101 0 103 -1 146 -87 14 -29 29 -53 31 -53 3 0
5 36 5 80 l0 80 -237 0 c-217 -1 -236 -2 -210 -16z"/>
<path d="M1693 2919 l27 -21 0 -273 0 -273 -27 -21 -28 -20 243 -1 242 0 -1
78 0 77 -32 -65 -33 -65 -112 -3 -113 -3 3 148 3 148 52 3 c55 3 77 -10 110
-64 10 -16 12 -4 12 69 1 48 -1 87 -3 87 -2 0 -13 -16 -25 -35 -20 -34 -22
-35 -86 -35 l-65 0 0 135 0 135 100 0 100 0 34 -67 35 -68 1 78 0 77 -232 0
-233 -1 28 -20z"/>
<path d="M2263 2919 l27 -21 0 -273 0 -273 -27 -21 -28 -20 231 -1 231 0 7 38
c3 20 6 60 5 87 l0 50 -34 -67 c-19 -37 -44 -72 -54 -78 -11 -5 -58 -10 -105
-10 l-86 0 0 280 0 281 26 24 27 25 -124 0 -124 -1 28 -20z"/>
</g>
</svg>
